<?xml version="1.0" encoding="UTF-8"?>
<!DOCTYPE svg PUBLIC "-//W3C//DTD SVG 1.1//EN" "http://www.w3.org/Graphics/SVG/1.1/DTD/svg11.dtd">
<svg xmlns="http://www.w3.org/2000/svg" version="1.1" width="570px" height="570px" style="shape-rendering:geometricPrecision; text-rendering:geometricPrecision; image-rendering:optimizeQuality; fill-rule:evenodd; clip-rule:evenodd" xmlns:xlink="http://www.w3.org/1999/xlink">
<g><path style="opacity:0.998" fill="#fefefe" d="M 261.5,-0.5 C 276.833,-0.5 292.167,-0.5 307.5,-0.5C 404.246,10.1491 478.413,56.4824 530,138.5C 552.137,176.739 565.303,217.739 569.5,261.5C 569.5,276.833 569.5,292.167 569.5,307.5C 558.851,404.246 512.518,478.413 430.5,530C 392.261,552.137 351.261,565.303 307.5,569.5C 292.167,569.5 276.833,569.5 261.5,569.5C 164.754,558.851 90.5869,512.518 39,430.5C 16.8633,392.261 3.69668,351.261 -0.5,307.5C -0.5,292.167 -0.5,276.833 -0.5,261.5C 10.1491,164.754 56.4824,90.5869 138.5,39C 176.739,16.8633 217.739,3.69668 261.5,-0.5 Z"/></g>
<g><path style="opacity:1" fill="#ca1c37" d="M 121.5,134.5 C 128.508,134.334 135.508,134.5 142.5,135C 145.938,138.499 149.105,138.332 152,134.5C 152.5,134.667 153,134.833 153.5,135C 154.481,142.413 154.814,149.913 154.5,157.5C 153.022,157.762 151.689,157.429 150.5,156.5C 148.561,150.117 145.228,144.617 140.5,140C 133.138,135.803 127.305,137.303 123,144.5C 119.667,159.167 119.667,173.833 123,188.5C 128.005,195.03 134.172,196.196 141.5,192C 146.482,187.246 149.482,181.413 150.5,174.5C 151.365,173.417 152.365,173.251 153.5,174C 154.482,181.747 154.815,189.58 154.5,197.5C 153.167,197.5 151.833,197.5 150.5,197.5C 150.5,196.5 150.5,195.5 150.5,194.5C 128.607,204.706 113.107,198.706 104,176.5C 101.397,158.735 107.23,144.735 121.5,134.5 Z"/></g>
<g><path style="opacity:1" fill="#cb1e38" d="M 378.5,139.5 C 386.189,140.343 388.689,144.343 386,151.5C 379.665,156.084 375.498,154.584 373.5,147C 373.667,145.833 373.833,144.667 374,143.5C 375.667,142.267 377.167,140.933 378.5,139.5 Z"/></g>
<g><path style="opacity:1" fill="#c91a35" d="M 171.5,156.5 C 179.983,155.177 187.483,157.177 194,162.5C 194.973,164.392 195.64,166.392 196,168.5C 196.052,177.885 196.552,184.552 197.5,188.5C 199.167,188.5 200.833,188.5 202.5,188.5C 202.714,190.144 202.38,191.644 201.5,193C 203.5,193.667 205.5,193.667 207.5,193C 206.167,183 206.167,173 207.5,163C 205.527,162.505 203.527,162.338 201.5,162.5C 201.5,161.167 201.5,159.833 201.5,158.5C 207.833,158.5 214.167,158.5 220.5,158.5C 220.351,159.552 220.517,160.552 221,161.5C 224.901,156.95 229.734,155.617 235.5,157.5C 236.531,158.7 237.365,160.034 238,161.5C 238.483,160.552 238.649,159.552 238.5,158.5C 245.167,158.5 251.833,158.5 258.5,158.5C 258.343,159.873 258.51,161.207 259,162.5C 263.441,156.823 269.275,154.989 276.5,157C 280.058,158.892 282.558,161.725 284,165.5C 284.5,174.827 284.666,184.161 284.5,193.5C 286.5,193.5 288.5,193.5 290.5,193.5C 290.5,194.833 290.5,196.167 290.5,197.5C 282.167,197.5 273.833,197.5 265.5,197.5C 265.5,196.167 265.5,194.833 265.5,193.5C 267.167,193.5 268.833,193.5 270.5,193.5C 270.666,183.828 270.5,174.161 270,164.5C 268.582,162.637 266.749,162.137 264.5,163C 262.291,164.873 260.458,167.04 259,169.5C 258.5,177.493 258.334,185.493 258.5,193.5C 260.167,193.5 261.833,193.5 263.5,193.5C 263.5,194.833 263.5,196.167 263.5,197.5C 255.167,197.5 246.833,197.5 238.5,197.5C 238.5,196.167 238.5,194.833 238.5,193.5C 240.5,193.5 242.5,193.5 244.5,193.5C 244.5,183.167 244.5,172.833 244.5,162.5C 242.833,162.5 241.167,162.5 239.5,162.5C 237.937,170.944 233.437,173.277 226,169.5C 225.027,167.608 224.36,165.608 224,163.5C 220.752,173.19 219.585,183.19 220.5,193.5C 223.187,193.336 225.854,193.503 228.5,194C 229.337,195.011 229.67,196.178 229.5,197.5C 220.167,197.5 210.833,197.5 201.5,197.5C 201.649,196.448 201.483,195.448 201,194.5C 195.202,199.806 189.369,199.806 183.5,194.5C 178.504,198.346 172.838,199.512 166.5,198C 159.741,195.983 156.908,191.483 158,184.5C 159.031,181.461 160.865,178.961 163.5,177C 169.753,175.353 176.087,174.186 182.5,173.5C 184.693,163.009 180.693,159.175 170.5,162C 175.734,165.8 175.734,169.466 170.5,173C 163.167,173.997 160.334,170.83 162,163.5C 162.915,162.672 163.581,161.672 164,160.5C 166.769,159.534 169.269,158.201 171.5,156.5 Z"/></g>
<g><path style="opacity:1" fill="#c91c37" d="M 303.5,156.5 C 317.875,156.21 325.541,163.21 326.5,177.5C 318.913,177.814 311.413,177.481 304,176.5C 303.333,180.833 303.333,185.167 304,189.5C 304.465,190.931 305.299,192.097 306.5,193C 316.166,195.165 321.499,191.332 322.5,181.5C 324.199,181.34 325.866,181.506 327.5,182C 324.219,195.144 315.886,200.477 302.5,198C 290.654,193.1 286.154,184.266 289,171.5C 292.021,164.647 296.855,159.647 303.5,156.5 Z"/></g>
<g><path style="opacity:1" fill="#cb1e38" d="M 339.5,156.5 C 344.861,155.866 349.861,156.866 354.5,159.5C 360.637,155.078 365.303,156.245 368.5,163C 367.185,167.022 364.685,168.189 361,166.5C 361.437,172.788 359.271,177.955 354.5,182C 348.247,183.204 341.914,183.871 335.5,184C 334.643,184.689 333.977,185.522 333.5,186.5C 341.871,187.128 350.205,187.961 358.5,189C 367.009,199.144 366.009,208.478 355.5,217C 346.749,221.766 338.082,221.599 329.5,216.5C 323.897,210.413 324.231,204.746 330.5,199.5C 324.616,192.043 325.616,185.709 333.5,180.5C 326.861,173.703 326.861,166.87 333.5,160C 335.879,159.284 337.879,158.117 339.5,156.5 Z"/></g>
<g><path style="opacity:1" fill="#c91b37" d="M 406.5,156.5 C 420.875,156.21 428.541,163.21 429.5,177.5C 421.913,177.814 414.413,177.481 407,176.5C 406.333,180.833 406.333,185.167 407,189.5C 407.465,190.931 408.299,192.097 409.5,193C 419.166,195.165 424.499,191.332 425.5,181.5C 427.288,181.215 428.955,181.548 430.5,182.5C 425.175,198.824 414.842,202.991 399.5,195C 390.651,186.35 389.151,176.516 395,165.5C 398.183,161.462 402.016,158.462 406.5,156.5 Z"/></g>
<g><path style="opacity:1" fill="#c81834" d="M 368.5,157.5 C 374.833,157.5 381.167,157.5 387.5,157.5C 387.5,169.5 387.5,181.5 387.5,193.5C 389.5,193.5 391.5,193.5 393.5,193.5C 393.5,194.833 393.5,196.167 393.5,197.5C 384.833,197.5 376.167,197.5 367.5,197.5C 367.5,196.167 367.5,194.833 367.5,193.5C 369.5,193.5 371.5,193.5 373.5,193.5C 373.5,183.167 373.5,172.833 373.5,162.5C 369.5,163.167 367.833,161.5 368.5,157.5 Z"/></g>
<g><path style="opacity:1" fill="#fefdfd" d="M 304.5,161.5 C 306.604,161.201 308.604,161.534 310.5,162.5C 311.417,165.758 311.751,169.091 311.5,172.5C 308.833,172.5 306.167,172.5 303.5,172.5C 303.323,168.766 303.656,165.099 304.5,161.5 Z"/></g>
<g><path style="opacity:1" fill="#fefdfd" d="M 342.5,161.5 C 344.467,161.261 346.301,161.594 348,162.5C 348.667,167.5 348.667,172.5 348,177.5C 346.211,179.229 344.044,179.896 341.5,179.5C 339.867,173.315 340.2,167.315 342.5,161.5 Z"/></g>
<g><path style="opacity:1" fill="#fefbfc" d="M 408.5,161.5 C 410.288,161.215 411.955,161.548 413.5,162.5C 414.417,165.758 414.751,169.091 414.5,172.5C 411.833,172.5 409.167,172.5 406.5,172.5C 406.01,168.513 406.676,164.846 408.5,161.5 Z"/></g>
<g><path style="opacity:1" fill="#fefcfc" d="M 175.5,178.5 C 177.833,178.5 180.167,178.5 182.5,178.5C 182.695,182.915 182.195,187.249 181,191.5C 178.333,194.167 175.667,194.167 173,191.5C 172.333,187.833 172.333,184.167 173,180.5C 173.995,179.934 174.828,179.267 175.5,178.5 Z"/></g>
<g><path style="opacity:1" fill="#fefdfd" d="M 335.5,200.5 C 342.175,200.334 348.842,200.5 355.5,201C 358.852,207.655 356.852,212.322 349.5,215C 343.277,217.236 337.777,216.069 333,211.5C 331.946,207.345 332.78,203.678 335.5,200.5 Z"/></g>
<g><path style="opacity:1" fill="#c91a34" d="M 103.5,210.5 C 111.167,210.5 118.833,210.5 126.5,210.5C 130.5,223.482 134.667,236.482 139,249.5C 143.478,236.568 147.644,223.568 151.5,210.5C 158.833,210.5 166.167,210.5 173.5,210.5C 173.5,212.167 173.5,213.833 173.5,215.5C 171.833,215.5 170.167,215.5 168.5,215.5C 168.5,233.167 168.5,250.833 168.5,268.5C 170.167,268.5 171.833,268.5 173.5,268.5C 173.5,269.833 173.5,271.167 173.5,272.5C 164.833,272.5 156.167,272.5 147.5,272.5C 147.5,271.167 147.5,269.833 147.5,268.5C 149.5,268.5 151.5,268.5 153.5,268.5C 153.667,252.83 153.5,237.163 153,221.5C 147.677,238.3 141.844,254.966 135.5,271.5C 133.955,272.452 132.288,272.785 130.5,272.5C 125.171,254.68 119.338,237.013 113,219.5C 112.333,235.167 112.333,250.833 113,266.5C 115.007,267.669 117.173,268.335 119.5,268.5C 119.5,269.833 119.5,271.167 119.5,272.5C 114.167,272.5 108.833,272.5 103.5,272.5C 102.756,269.05 104.09,267.384 107.5,267.5C 107.25,250.357 107.583,233.191 108.5,216C 106.866,215.506 105.199,215.34 103.5,215.5C 103.5,213.833 103.5,212.167 103.5,210.5 Z"/></g>
<g><path style="opacity:1" fill="#c71633" d="M 208.5,210.5 C 215.167,210.5 221.833,210.5 228.5,210.5C 228.333,229.836 228.5,249.17 229,268.5C 232.828,268.708 236.494,268.375 240,267.5C 240.5,250.17 240.667,232.837 240.5,215.5C 238.473,215.662 236.473,215.495 234.5,215C 233.167,213.667 233.167,212.333 234.5,211C 240.825,210.5 247.158,210.334 253.5,210.5C 253.333,229.836 253.5,249.17 254,268.5C 255.699,267.594 257.533,267.261 259.5,267.5C 259.5,269.167 259.5,270.833 259.5,272.5C 242.5,272.5 225.5,272.5 208.5,272.5C 208.015,267.841 209.848,266.508 214,268.5C 214.667,250.5 214.667,232.5 214,214.5C 209.848,216.492 208.015,215.159 208.5,210.5 Z"/></g>
<g><path style="opacity:1" fill="#c91733" d="M 327.5,231.5 C 334.709,230.497 339.875,233.163 343,239.5C 343.5,249.161 343.666,258.828 343.5,268.5C 345.5,268.5 347.5,268.5 349.5,268.5C 349.5,269.833 349.5,271.167 349.5,272.5C 341.5,272.5 333.5,272.5 325.5,272.5C 325.5,271.167 325.5,269.833 325.5,268.5C 326.833,268.5 328.167,268.5 329.5,268.5C 329.666,258.494 329.5,248.494 329,238.5C 323.84,237.09 320.507,239.09 319,244.5C 318.5,252.493 318.334,260.493 318.5,268.5C 319.833,268.5 321.167,268.5 322.5,268.5C 322.5,269.833 322.5,271.167 322.5,272.5C 314.5,272.5 306.5,272.5 298.5,272.5C 298.5,271.167 298.5,269.833 298.5,268.5C 300.604,268.799 302.604,268.466 304.5,267.5C 303.176,257.637 303.176,247.803 304.5,238C 302.527,237.505 300.527,237.338 298.5,237.5C 298.275,235.284 299.108,233.617 301,232.5C 305.803,233.812 310.636,233.812 315.5,232.5C 317.432,233.145 318.599,234.479 319,236.5C 321.398,233.892 324.231,232.225 327.5,231.5 Z"/></g>
<g><path style="opacity:1" fill="#ca1d37" d="M 185.5,232.5 C 200.36,230.36 209.026,236.693 211.5,251.5C 203.493,251.334 195.493,251.5 187.5,252C 187.167,252.333 186.833,252.667 186.5,253C 187.293,256.411 187.793,259.911 188,263.5C 188.273,265.329 189.107,266.829 190.5,268C 200.18,270.147 205.514,266.314 206.5,256.5C 208.167,256.5 209.833,256.5 211.5,256.5C 207.229,272.665 197.229,277.498 181.5,271C 171.797,262.297 169.963,252.131 176,240.5C 178.772,237.217 181.939,234.55 185.5,232.5 Z"/></g>
<g><path style="opacity:1" fill="#c91a35" d="M 271.5,232.5 C 294.089,230.581 302.923,240.581 298,262.5C 292.163,272.229 283.663,275.729 272.5,273C 259.594,267.661 255.094,258.161 259,244.5C 261.769,238.895 265.936,234.895 271.5,232.5 Z"/></g>
<g><path style="opacity:1" fill="#fdf9fa" d="M 189.5,236.5 C 191.722,236.178 193.556,236.845 195,238.5C 195.218,241.426 195.718,244.26 196.5,247C 193.167,247.667 189.833,247.667 186.5,247C 187.088,243.371 188.088,239.871 189.5,236.5 Z"/></g>
<g><path style="opacity:1" fill="#fefdfd" d="M 277.5,236.5 C 280.561,236.444 282.728,237.778 284,240.5C 284.667,248.833 284.667,257.167 284,265.5C 283.242,267.91 281.575,268.91 279,268.5C 276.966,268.646 275.299,267.98 274,266.5C 273.333,257.5 273.333,248.5 274,239.5C 274.985,238.186 276.152,237.186 277.5,236.5 Z"/></g>
<g><path style="opacity:1" fill="#c81935" d="M 103.5,283.5 C 111.84,283.334 120.173,283.5 128.5,284C 129.833,285.333 129.833,286.667 128.5,288C 126.866,288.494 125.199,288.66 123.5,288.5C 123.082,303.883 123.582,319.216 125,334.5C 130.263,342.021 137.096,343.855 145.5,340C 147.969,337.559 149.802,334.726 151,331.5C 151.667,317.5 151.667,303.5 151,289.5C 149.301,288.594 147.467,288.261 145.5,288.5C 145.5,286.833 145.5,285.167 145.5,283.5C 151.167,283.5 156.833,283.5 162.5,283.5C 162.5,285.167 162.5,286.833 162.5,288.5C 160.533,288.261 158.699,288.594 157,289.5C 156.936,304.887 156.269,320.22 155,335.5C 150.467,344.437 143.133,348.437 133,347.5C 121.252,347.747 113.252,342.414 109,331.5C 108.5,317.171 108.333,302.837 108.5,288.5C 106.833,288.5 105.167,288.5 103.5,288.5C 103.5,286.833 103.5,285.167 103.5,283.5 Z"/></g>
<g><path style="opacity:1" fill="#cb1d37" d="M 220.5,288.5 C 226.23,287.86 229.564,290.36 230.5,296C 229.034,301.901 225.367,303.901 219.5,302C 214.287,297.124 214.62,292.624 220.5,288.5 Z"/></g>
<g><path style="opacity:1" fill="#cb1e38" d="M 386.5,288.5 C 393.78,288.062 396.613,291.395 395,298.5C 392.947,302.292 389.781,303.458 385.5,302C 380.285,297.128 380.618,292.628 386.5,288.5 Z"/></g>
<g><path style="opacity:1" fill="#ca1c37" d="M 286.5,305.5 C 300.395,305.064 308.061,311.731 309.5,325.5C 301.5,325.5 293.5,325.5 285.5,325.5C 285.275,330.248 285.775,334.915 287,339.5C 291.295,343.323 295.795,343.489 300.5,340C 302.821,337.192 304.488,334.025 305.5,330.5C 306.736,329.754 308.07,329.421 309.5,329.5C 306.565,344.563 297.565,350.063 282.5,346C 271.93,339.633 268.43,330.466 272,318.5C 275.195,312.128 280.028,307.795 286.5,305.5 Z"/></g>
<g><path style="opacity:1" fill="#ca1b36" d="M 345.5,315.5 C 342.893,319.315 339.226,320.482 334.5,319C 332.683,317.2 331.516,315.034 331,312.5C 329.133,314.808 328.133,317.475 328,320.5C 327.5,327.492 327.334,334.492 327.5,341.5C 330.187,341.336 332.854,341.503 335.5,342C 336.833,343.333 336.833,344.667 335.5,346C 326.506,346.5 317.506,346.666 308.5,346.5C 308.5,344.833 308.5,343.167 308.5,341.5C 310.5,341.5 312.5,341.5 314.5,341.5C 314.5,331.5 314.5,321.5 314.5,311.5C 312.5,311.5 310.5,311.5 308.5,311.5C 308.5,309.833 308.5,308.167 308.5,306.5C 314.833,306.5 321.167,306.5 327.5,306.5C 327.343,307.873 327.51,309.207 328,310.5C 328.93,308.448 330.43,306.948 332.5,306C 341.648,303.006 345.981,306.173 345.5,315.5 Z"/></g>
<g><path style="opacity:1" fill="#cb1d38" d="M 350.5,330.5 C 346.255,326.431 344.588,321.431 345.5,315.5C 350.475,305.728 358.142,303.061 368.5,307.5C 369.85,306.05 371.516,305.383 373.5,305.5C 373.5,310.167 373.5,314.833 373.5,319.5C 372.022,319.762 370.689,319.429 369.5,318.5C 367.103,310.739 362.103,308.406 354.5,311.5C 353.534,313.396 353.201,315.396 353.5,317.5C 359.592,318.156 365.592,319.323 371.5,321C 376.753,326.265 377.919,332.432 375,339.5C 369.118,347.29 361.618,349.29 352.5,345.5C 350.423,346.937 348.09,347.604 345.5,347.5C 345.5,341.833 345.5,336.167 345.5,330.5C 347.167,330.5 348.833,330.5 350.5,330.5 Z"/></g>
<g><path style="opacity:1" fill="#c81835" d="M 186.5,305.5 C 196.4,303.191 202.567,306.858 205,316.5C 205.5,324.827 205.666,333.16 205.5,341.5C 208.833,341.5 212.167,341.5 215.5,341.5C 215.5,331.5 215.5,321.5 215.5,311.5C 211.062,312.575 209.062,310.908 209.5,306.5C 216.5,306.5 223.5,306.5 230.5,306.5C 230.5,318.167 230.5,329.833 230.5,341.5C 232.5,341.5 234.5,341.5 236.5,341.5C 236.714,343.144 236.38,344.644 235.5,346C 218.837,346.5 202.17,346.667 185.5,346.5C 185.5,344.833 185.5,343.167 185.5,341.5C 187.167,341.5 188.833,341.5 190.5,341.5C 190.5,331.5 190.5,321.5 190.5,311.5C 185.442,310.717 181.942,312.717 180,317.5C 179.817,325.412 179.317,333.246 178.5,341C 180.473,341.495 182.473,341.662 184.5,341.5C 184.5,343.167 184.5,344.833 184.5,346.5C 175.833,346.5 167.167,346.5 158.5,346.5C 158.5,344.833 158.5,343.167 158.5,341.5C 160.5,341.5 162.5,341.5 164.5,341.5C 164.5,331.5 164.5,321.5 164.5,311.5C 160.062,312.575 158.062,310.908 158.5,306.5C 165.5,306.5 172.5,306.5 179.5,306.5C 179.351,307.552 179.517,308.552 180,309.5C 182.013,307.752 184.18,306.418 186.5,305.5 Z"/></g>
<g><path style="opacity:1" fill="#ca1e38" d="M 231.5,306.5 C 239.167,306.5 246.833,306.5 254.5,306.5C 254.5,308.167 254.5,309.833 254.5,311.5C 253.5,311.5 252.5,311.5 251.5,311.5C 253.11,317.386 255.277,323.053 258,328.5C 260.205,322.772 262.372,317.105 264.5,311.5C 262.712,311.785 261.045,311.452 259.5,310.5C 258.167,309.5 258.167,308.5 259.5,307.5C 264.456,306.506 269.456,306.173 274.5,306.5C 274.5,308.167 274.5,309.833 274.5,311.5C 272.856,311.286 271.356,311.62 270,312.5C 265.138,323.418 260.472,334.418 256,345.5C 254,348.167 252,348.167 250,345.5C 245.197,334.25 240.697,322.917 236.5,311.5C 234.833,311.5 233.167,311.5 231.5,311.5C 231.5,309.833 231.5,308.167 231.5,306.5 Z"/></g>
<g><path style="opacity:1" fill="#c91935" d="M 376.5,306.5 C 382.833,306.5 389.167,306.5 395.5,306.5C 395.5,318.167 395.5,329.833 395.5,341.5C 397.5,341.5 399.5,341.5 401.5,341.5C 401.5,343.167 401.5,344.833 401.5,346.5C 392.915,346.817 384.415,346.483 376,345.5C 375.316,344.216 375.483,343.049 376.5,342C 378.5,341.667 380.5,341.333 382.5,341C 381.167,331.333 381.167,321.667 382.5,312C 380.423,311.808 378.423,311.308 376.5,310.5C 375.193,309.135 375.193,307.802 376.5,306.5 Z"/></g>
<g><path style="opacity:1" fill="#ca1c37" d="M 413.5,288.5 C 414.833,288.5 416.167,288.5 417.5,288.5C 417.5,294.5 417.5,300.5 417.5,306.5C 427.167,306.5 436.833,306.5 446.5,306.5C 446.5,308.167 446.5,309.833 446.5,311.5C 445.5,311.5 444.5,311.5 443.5,311.5C 445.092,317.356 447.258,323.023 450,328.5C 451.882,323.012 454.049,317.679 456.5,312.5C 452.199,312.619 450.199,310.619 450.5,306.5C 455.5,306.5 460.5,306.5 465.5,306.5C 465.5,308.167 465.5,309.833 465.5,311.5C 464.448,311.351 463.448,311.517 462.5,312C 454.818,328.698 447.318,345.532 440,362.5C 435.217,368.603 430.217,368.937 425,363.5C 423.695,354.974 427.195,351.974 435.5,354.5C 436.145,355.646 436.978,356.646 438,357.5C 439.113,353.492 440.613,349.659 442.5,346C 437.663,334.816 432.829,323.65 428,312.5C 424.606,311.544 421.106,311.211 417.5,311.5C 417.5,321.167 417.5,330.833 417.5,340.5C 427.932,336.189 428.932,338.022 420.5,346C 412.18,349.12 406.346,346.62 403,338.5C 402.5,329.506 402.334,320.506 402.5,311.5C 401.167,311.5 399.833,311.5 398.5,311.5C 398.5,309.833 398.5,308.167 398.5,306.5C 408.5,304.822 413.5,298.822 413.5,288.5 Z"/></g>
<g><path style="opacity:1" fill="#fefbfb" d="M 287.5,310.5 C 289.5,310.5 291.5,310.5 293.5,310.5C 294.283,314.146 294.45,317.812 294,321.5C 291.333,320.167 288.667,320.167 286,321.5C 285.112,317.598 285.612,313.931 287.5,310.5 Z"/></g>
<g><path style="opacity:1" fill="#fefcfc" d="M 350.5,330.5 C 355.992,332.562 361.658,333.895 367.5,334.5C 369.163,339.363 367.329,342.03 362,342.5C 355.245,341.246 351.412,337.246 350.5,330.5 Z"/></g>
<g><path style="opacity:1" fill="#757679" d="M 130.5,369.5 C 132.124,369.36 133.29,370.027 134,371.5C 141.209,390.962 148.709,410.296 156.5,429.5C 158.045,430.452 159.712,430.785 161.5,430.5C 161.5,419.5 161.5,408.5 161.5,397.5C 159.5,397.5 157.5,397.5 155.5,397.5C 155.5,396.167 155.5,394.833 155.5,393.5C 157.5,393.5 159.5,393.5 161.5,393.5C 161.467,384.05 165.134,376.55 172.5,371C 181.266,367.72 187.266,370.387 190.5,379C 186.201,388.68 181.868,388.846 177.5,379.5C 177.848,377.303 178.848,375.47 180.5,374C 178.833,373.333 177.167,373.333 175.5,374C 174.315,380.449 174.315,386.949 175.5,393.5C 177.5,393.5 179.5,393.5 181.5,393.5C 181.5,394.833 181.5,396.167 181.5,397.5C 179.5,397.5 177.5,397.5 175.5,397.5C 175.5,408.5 175.5,419.5 175.5,430.5C 177.5,430.5 179.5,430.5 181.5,430.5C 181.5,431.833 181.5,433.167 181.5,434.5C 165.5,434.5 149.5,434.5 133.5,434.5C 133.5,433.167 133.5,431.833 133.5,430.5C 135.604,430.799 137.604,430.466 139.5,429.5C 137.243,424.73 135.577,419.73 134.5,414.5C 129.125,414.172 123.792,414.505 118.5,415.5C 116.976,420.619 115.309,425.619 113.5,430.5C 116.167,430.5 118.833,430.5 121.5,430.5C 121.5,431.833 121.5,433.167 121.5,434.5C 115.5,434.5 109.5,434.5 103.5,434.5C 103.5,433.167 103.5,431.833 103.5,430.5C 104.873,430.657 106.207,430.49 107.5,430C 115.838,410.161 123.505,389.995 130.5,369.5 Z"/></g>
<g><path style="opacity:1" fill="#747578" d="M 233.5,371.5 C 242.108,370.276 245.941,373.943 245,382.5C 240,389.167 235,389.167 230,382.5C 228.882,378.077 230.049,374.41 233.5,371.5 Z"/></g>
<g><path style="opacity:1" fill="#737477" d="M 201.5,392.5 C 202.5,392.5 203.5,392.5 204.5,392.5C 204.5,393.833 204.5,395.167 204.5,396.5C 206.76,395.861 208.76,394.694 210.5,393C 217.343,390.918 221.676,393.252 223.5,400C 220.818,407.924 216.151,409.424 209.5,404.5C 208.692,402.577 208.192,400.577 208,398.5C 207.581,399.672 206.915,400.672 206,401.5C 204.676,411.116 204.176,420.783 204.5,430.5C 207.167,430.5 209.833,430.5 212.5,430.5C 212.5,431.833 212.5,433.167 212.5,434.5C 203.167,434.5 193.833,434.5 184.5,434.5C 184.5,433.167 184.5,431.833 184.5,430.5C 186.5,430.5 188.5,430.5 190.5,430.5C 190.5,419.5 190.5,408.5 190.5,397.5C 188.5,397.5 186.5,397.5 184.5,397.5C 184.5,396.167 184.5,394.833 184.5,393.5C 190.358,393.822 196.025,393.489 201.5,392.5 Z"/></g>
<g><path style="opacity:1" fill="#737477" d="M 242.5,391.5 C 244.481,404.124 245.148,417.124 244.5,430.5C 246.5,430.5 248.5,430.5 250.5,430.5C 250.5,431.833 250.5,433.167 250.5,434.5C 241.833,434.5 233.167,434.5 224.5,434.5C 224.5,433.167 224.5,431.833 224.5,430.5C 226.5,430.5 228.5,430.5 230.5,430.5C 230.5,419.5 230.5,408.5 230.5,397.5C 228.5,397.5 226.5,397.5 224.5,397.5C 224.5,396.167 224.5,394.833 224.5,393.5C 229.844,393.666 235.177,393.499 240.5,393C 241.416,392.722 242.082,392.222 242.5,391.5 Z"/></g>
<g><path style="opacity:1" fill="#767679" d="M 268.5,392.5 C 276.333,392.186 282.499,395.186 287,401.5C 287.539,406.656 285.206,409.99 280,411.5C 271.69,408.899 270.523,404.399 276.5,398C 272.897,396.178 269.23,396.011 265.5,397.5C 264.409,407.466 264.242,417.466 265,427.5C 265.465,428.931 266.299,430.097 267.5,431C 271.261,431.738 274.928,431.405 278.5,430C 281.584,427.157 283.917,423.824 285.5,420C 285.833,419.833 286.167,419.667 286.5,419.5C 287.281,420.729 287.781,422.062 288,423.5C 288.221,417.276 291.387,413.442 297.5,412C 302.42,410.75 307.42,410.25 312.5,410.5C 315.713,398.211 311.38,394.044 299.5,398C 305.271,400.748 305.937,404.414 301.5,409C 294.17,410.666 291.003,407.833 292,400.5C 295.385,394.556 300.552,391.89 307.5,392.5C 315.343,392.203 321.51,395.203 326,401.5C 326.168,410.851 326.668,420.184 327.5,429.5C 328.624,428.086 329.624,426.586 330.5,425C 331.448,424.517 332.448,424.351 333.5,424.5C 332.419,434.174 327.085,437.34 317.5,434C 316.027,433.29 315.36,432.124 315.5,430.5C 312.886,430.277 311.219,431.444 310.5,434C 305.167,434.667 299.833,434.667 294.5,434C 293.069,433.535 291.903,432.701 291,431.5C 290.086,429.336 288.919,427.336 287.5,425.5C 285.172,428.661 282.505,431.495 279.5,434C 266.373,437.949 256.54,434.116 250,422.5C 247.771,416.669 248.105,411.002 251,405.5C 255.089,398.565 260.923,394.232 268.5,392.5 Z"/></g>
<g><path style="opacity:1" fill="#fafafb" d="M 125.5,393.5 C 126.497,393.47 127.164,393.97 127.5,395C 128.793,400.213 130.46,405.213 132.5,410C 128.5,410.667 124.5,410.667 120.5,410C 122.467,404.6 124.133,399.1 125.5,393.5 Z"/></g>
<g><path style="opacity:1" fill="#fdfdfd" d="M 304.5,414.5 C 307.167,414.5 309.833,414.5 312.5,414.5C 312.666,418.514 312.499,422.514 312,426.5C 309.805,430.872 306.805,431.539 303,428.5C 301.966,423.543 302.466,418.876 304.5,414.5 Z"/></g>
</svg>
