<?xml version="1.0" encoding="UTF-8"?>
<!DOCTYPE svg PUBLIC "-//W3C//DTD SVG 1.1//EN" "http://www.w3.org/Graphics/SVG/1.1/DTD/svg11.dtd">
<svg xmlns="http://www.w3.org/2000/svg" version="1.1" width="1026px" height="1026px" style="shape-rendering:geometricPrecision; text-rendering:geometricPrecision; image-rendering:optimizeQuality; fill-rule:evenodd; clip-rule:evenodd" xmlns:xlink="http://www.w3.org/1999/xlink">
<g><path style="opacity:0.998" fill="#fefefe" d="M 479.5,-0.5 C 501.5,-0.5 523.5,-0.5 545.5,-0.5C 700.426,13.0315 825.926,80.3648 922,201.5C 983.113,284.095 1017.61,376.762 1025.5,479.5C 1025.5,501.5 1025.5,523.5 1025.5,545.5C 1011.97,700.426 944.635,825.926 823.5,922C 740.905,983.113 648.238,1017.61 545.5,1025.5C 523.5,1025.5 501.5,1025.5 479.5,1025.5C 324.574,1011.97 199.074,944.635 103,823.5C 41.8867,740.905 7.3867,648.238 -0.5,545.5C -0.5,523.5 -0.5,501.5 -0.5,479.5C 13.0315,324.574 80.3648,199.074 201.5,103C 284.095,41.8867 376.762,7.3867 479.5,-0.5 Z"/></g>
<g><path style="opacity:1" fill="#060606" d="M 378.5,370.5 C 399.833,370.5 421.167,370.5 442.5,370.5C 442.5,372.5 442.5,374.5 442.5,376.5C 435.825,376.334 429.158,376.5 422.5,377C 420.919,377.707 419.419,378.54 418,379.5C 417.333,419.5 417.333,459.5 418,499.5C 418.75,500.126 419.584,500.626 420.5,501C 430.167,501.667 439.833,501.667 449.5,501C 468.075,499.092 478.908,488.926 482,470.5C 482.912,465.536 483.412,460.536 483.5,455.5C 485.167,455.5 486.833,455.5 488.5,455.5C 486.834,472.83 485.167,490.163 483.5,507.5C 448.5,507.5 413.5,507.5 378.5,507.5C 378.5,505.5 378.5,503.5 378.5,501.5C 383.511,501.666 388.511,501.499 393.5,501C 396.199,500.034 398.033,498.2 399,495.5C 399.667,457.5 399.667,419.5 399,381.5C 398.49,378.995 396.99,377.495 394.5,377C 389.246,375.729 383.913,375.229 378.5,375.5C 378.5,373.833 378.5,372.167 378.5,370.5 Z"/></g>
<g><path style="opacity:1" fill="#080808" d="M 520.5,372.5 C 531.053,372.218 535.22,377.218 533,387.5C 530.081,393.025 525.581,394.858 519.5,393C 512.498,388.995 510.998,383.495 515,376.5C 516.812,375.023 518.645,373.69 520.5,372.5 Z"/></g>
<g><path style="opacity:1" fill="#080808" d="M 703.5,417.5 C 734,414.841 748.834,428.841 748,459.5C 727.909,460.493 707.743,460.827 687.5,460.5C 686.452,474.493 690.119,486.993 698.5,498C 712.575,507.357 725.742,506.19 738,494.5C 740.377,490.71 742.377,486.71 744,482.5C 745.356,481.62 746.856,481.286 748.5,481.5C 745.723,496.777 736.723,505.944 721.5,509C 700.151,511.077 684.651,502.577 675,483.5C 666.04,460.843 670.54,441.343 688.5,425C 693.313,421.927 698.313,419.427 703.5,417.5 Z"/></g>
<g><path style="opacity:1" fill="#0a0a0a" d="M 292.5,418.5 C 303.679,417.682 310.679,422.682 313.5,433.5C 325.031,418.54 339.364,414.874 356.5,422.5C 358.919,424.754 360.752,427.421 362,430.5C 362.667,436.167 362.667,441.833 362,447.5C 357.941,462.678 353.274,477.678 348,492.5C 345.01,504.87 348.843,508.036 359.5,502C 365.239,494.809 369.073,486.642 371,477.5C 374.111,475.728 375.944,476.561 376.5,480C 374.266,489.469 369.933,497.803 363.5,505C 350.604,513.409 341.438,510.575 336,496.5C 335.454,493.101 335.787,489.768 337,486.5C 343.462,470.15 347.962,453.317 350.5,436C 350.657,423.926 344.99,419.926 333.5,424C 319.611,431.899 311.111,443.733 308,459.5C 304.156,475.209 300.156,490.876 296,506.5C 292.531,509.916 288.864,510.25 285,507.5C 284.876,502.106 285.543,496.773 287,491.5C 291.824,473.204 296.491,454.871 301,436.5C 301.667,433.167 301.667,429.833 301,426.5C 299.666,422.896 297.166,421.729 293.5,423C 290.567,425.264 288.4,428.098 287,431.5C 284.802,437.761 282.802,444.095 281,450.5C 278.214,452.184 276.38,451.517 275.5,448.5C 277.247,440.426 280.08,432.76 284,425.5C 286.464,422.519 289.297,420.186 292.5,418.5 Z"/></g>
<g><path style="opacity:1" fill="#101010" d="M 518.5,418.5 C 523.5,418.5 528.5,418.5 533.5,418.5C 533.333,445.169 533.5,471.835 534,498.5C 535.171,499.893 536.671,500.727 538.5,501C 541.482,501.498 544.482,501.665 547.5,501.5C 547.5,503.5 547.5,505.5 547.5,507.5C 533.167,507.5 518.833,507.5 504.5,507.5C 504.5,505.167 504.5,502.833 504.5,500.5C 508.846,500.666 513.179,500.499 517.5,500C 518,499.5 518.5,499 519,498.5C 519.667,475.833 519.667,453.167 519,430.5C 515.105,427.479 510.605,426.146 505.5,426.5C 505.5,424.5 505.5,422.5 505.5,420.5C 510.028,420.23 514.361,419.563 518.5,418.5 Z"/></g>
<g><path style="opacity:1" fill="#080808" d="M 587.5,418.5 C 587.17,425.2 587.503,431.866 588.5,438.5C 589.107,438.376 589.44,438.043 589.5,437.5C 596.798,422.402 608.798,416.236 625.5,419C 636.216,420.716 642.716,426.883 645,437.5C 645.333,457.5 645.667,477.5 646,497.5C 646.5,499.333 647.667,500.5 649.5,501C 653.152,501.499 656.818,501.665 660.5,501.5C 660.5,503.5 660.5,505.5 660.5,507.5C 645.5,507.5 630.5,507.5 615.5,507.5C 615.5,505.5 615.5,503.5 615.5,501.5C 619.804,500.869 624.137,500.369 628.5,500C 629.333,499.167 630.167,498.333 631,497.5C 631.667,477.167 631.667,456.833 631,436.5C 628.335,423.913 620.835,419.746 608.5,424C 598.671,428.495 592.505,435.995 590,446.5C 589.333,463.167 589.333,479.833 590,496.5C 590.309,497.766 590.809,498.933 591.5,500C 595.77,501.075 600.103,501.575 604.5,501.5C 604.5,503.5 604.5,505.5 604.5,507.5C 589.833,507.5 575.167,507.5 560.5,507.5C 560.5,505.167 560.5,502.833 560.5,500.5C 564.514,500.666 568.514,500.499 572.5,500C 573.333,499.167 574.167,498.333 575,497.5C 575.667,475.833 575.667,454.167 575,432.5C 574.273,429.045 572.107,427.379 568.5,427.5C 566.052,426.527 563.385,426.194 560.5,426.5C 560.5,424.5 560.5,422.5 560.5,420.5C 569.473,419.503 578.473,418.836 587.5,418.5 Z"/></g>
<g><path style="opacity:1" fill="#5a5a5a" d="M 587.5,418.5 C 588.167,424.833 588.833,431.167 589.5,437.5C 589.44,438.043 589.107,438.376 588.5,438.5C 587.503,431.866 587.17,425.2 587.5,418.5 Z"/></g>
<g><path style="opacity:1" fill="#fcfcfc" d="M 708.5,421.5 C 721.879,420.376 730.045,426.376 733,439.5C 734.677,445.049 735.51,450.715 735.5,456.5C 719.5,456.5 703.5,456.5 687.5,456.5C 686.661,439.805 693.661,428.138 708.5,421.5 Z"/></g>
<g><path style="opacity:1" fill="#9b9b9b" d="M 560.5,420.5 C 560.5,422.5 560.5,424.5 560.5,426.5C 563.385,426.194 566.052,426.527 568.5,427.5C 565.5,427.5 562.5,427.5 559.5,427.5C 559.198,424.941 559.532,422.607 560.5,420.5 Z"/></g>
</svg>
