<?xml version="1.0" encoding="UTF-8"?>
<!DOCTYPE svg PUBLIC "-//W3C//DTD SVG 1.1//EN" "http://www.w3.org/Graphics/SVG/1.1/DTD/svg11.dtd">
<svg xmlns="http://www.w3.org/2000/svg" version="1.1" width="190px" height="190px" style="shape-rendering:geometricPrecision; text-rendering:geometricPrecision; image-rendering:optimizeQuality; fill-rule:evenodd; clip-rule:evenodd" xmlns:xlink="http://www.w3.org/1999/xlink">
<g><path style="opacity:0.996" fill="#fcfdfe" d="M 83.5,-0.5 C 90.8333,-0.5 98.1667,-0.5 105.5,-0.5C 152.5,8.5 180.5,36.5 189.5,83.5C 189.5,90.8333 189.5,98.1667 189.5,105.5C 180.5,152.5 152.5,180.5 105.5,189.5C 98.1667,189.5 90.8333,189.5 83.5,189.5C 36.5,180.5 8.5,152.5 -0.5,105.5C -0.5,98.1667 -0.5,90.8333 -0.5,83.5C 8.5,36.5 36.5,8.5 83.5,-0.5 Z"/></g>
<g><path style="opacity:1" fill="#b0c5e9" d="M 103.5,27.5 C 109.174,26.8438 114.174,28.1771 118.5,31.5C 113.498,29.714 108.498,28.3807 103.5,27.5 Z"/></g>
<g><path style="opacity:1" fill="#0f4ebd" d="M 103.5,27.5 C 108.498,28.3807 113.498,29.714 118.5,31.5C 151.433,46.6924 165.6,72.3591 161,108.5C 155.687,130.291 143.187,146.291 123.5,156.5C 116.307,159.121 108.974,161.121 101.5,162.5C 94.7978,162.664 88.1311,162.331 81.5,161.5C 79.3792,161.675 77.3792,161.341 75.5,160.5C 74.0697,159.463 72.403,158.796 70.5,158.5C 69.1667,158.167 67.8333,157.833 66.5,157.5C 64.2433,155.122 63.91,152.455 65.5,149.5C 73.5333,129.747 81.2,109.747 88.5,89.5C 87.0416,88.218 85.7082,88.218 84.5,89.5C 82.7376,89.3573 81.0709,89.6906 79.5,90.5C 78.7025,90.0431 78.3691,89.3764 78.5,88.5C 80.9736,76.633 83.6403,64.7996 86.5,53C 86.1667,52.1667 85.8333,51.3333 85.5,50.5C 83.2895,51.1228 81.2895,52.1228 79.5,53.5C 79.1667,52.8333 78.8333,52.1667 78.5,51.5C 81.2836,43.5967 83.7836,35.5967 86,27.5C 91.833,26.1875 97.6663,26.1875 103.5,27.5 Z"/></g>
<g><path style="opacity:1" fill="#6d90d6" d="M 67.5,34.5 C 66.3684,33.6457 65.035,33.6457 63.5,34.5C 64.7514,32.439 66.4181,32.1057 68.5,33.5C 68.3764,34.1067 68.0431,34.44 67.5,34.5 Z"/></g>
<g><path style="opacity:1" fill="#254cbc" d="M 67.5,34.5 C 67.5,35.1667 67.5,35.8333 67.5,36.5C 65.2646,36.7947 63.2646,36.4614 61.5,35.5C 61.8417,34.6618 62.5084,34.3284 63.5,34.5C 65.035,33.6457 66.3684,33.6457 67.5,34.5 Z"/></g>
<g><path style="opacity:1" fill="#5d86d2" d="M 61.5,35.5 C 63.2646,36.4614 65.2646,36.7947 67.5,36.5C 67.7678,38.099 67.4345,39.4324 66.5,40.5C 65.4855,39.2353 63.9855,38.5687 62,38.5C 59.7841,38.6527 57.6175,38.9861 55.5,39.5C 56.8021,37.1782 58.8021,35.8449 61.5,35.5 Z"/></g>
<g><path style="opacity:1" fill="#124ebd" d="M 66.5,40.5 C 65.7814,42.7638 65.448,45.0971 65.5,47.5C 58.9779,47.8235 52.6446,47.4902 46.5,46.5C 49.2085,43.7915 52.2085,41.4581 55.5,39.5C 57.6175,38.9861 59.7841,38.6527 62,38.5C 63.9855,38.5687 65.4855,39.2353 66.5,40.5 Z"/></g>
<g><path style="opacity:1" fill="#688fd5" d="M 46.5,46.5 C 52.6446,47.4902 58.9779,47.8235 65.5,47.5C 65.7678,49.099 65.4345,50.4324 64.5,51.5C 57.9131,49.5388 50.9131,48.8721 43.5,49.5C 44.5,48.5 45.5,47.5 46.5,46.5 Z"/></g>
<g><path style="opacity:1" fill="#104ebc" d="M 43.5,49.5 C 50.9131,48.8721 57.9131,49.5388 64.5,51.5C 64.7678,53.099 64.4345,54.4324 63.5,55.5C 59.4197,56.7678 55.0864,57.4345 50.5,57.5C 46.3188,57.4989 42.3188,57.1656 38.5,56.5C 39.7787,53.8883 41.4453,51.5549 43.5,49.5 Z"/></g>
<g><path style="opacity:1" fill="#3c6bc7" d="M 63.5,55.5 C 63.5,56.5 63.5,57.5 63.5,58.5C 54.4355,59.1364 45.7688,58.4698 37.5,56.5C 37.8333,56.5 38.1667,56.5 38.5,56.5C 42.3188,57.1656 46.3188,57.4989 50.5,57.5C 55.0864,57.4345 59.4197,56.7678 63.5,55.5 Z"/></g>
<g><path style="opacity:1" fill="#99b6e3" d="M 37.5,56.5 C 45.7688,58.4698 54.4355,59.1364 63.5,58.5C 63.7373,59.791 63.404,60.791 62.5,61.5C 54.2312,59.5302 45.5645,58.8636 36.5,59.5C 36.2627,58.209 36.596,57.209 37.5,56.5 Z"/></g>
<g><path style="opacity:1" fill="#1c56c0" d="M 36.5,59.5 C 45.5645,58.8636 54.2312,59.5302 62.5,61.5C 62.3259,63.861 61.9926,66.1944 61.5,68.5C 61.1667,68.5 60.8333,68.5 60.5,68.5C 50.7734,69.1389 41.4401,68.4722 32.5,66.5C 33.0787,63.6689 34.412,61.3356 36.5,59.5 Z"/></g>
<g><path style="opacity:1" fill="#3d61c4" d="M 71.5,69.5 C 69.2188,69.9227 67.5521,69.256 66.5,67.5C 68.258,67.1231 69.9246,66.4565 71.5,65.5C 72.2916,66.6998 72.2916,68.0331 71.5,69.5 Z"/></g>
<g><path style="opacity:1" fill="#5484d1" d="M 32.5,66.5 C 41.4401,68.4722 50.7734,69.1389 60.5,68.5C 55.8453,69.1659 51.0119,69.4993 46,69.5C 40.7843,69.4937 35.951,68.8271 31.5,67.5C 31.5,66.8333 31.8333,66.5 32.5,66.5 Z"/></g>
<g><path style="opacity:1" fill="#a9c3e9" d="M 31.5,67.5 C 35.951,68.8271 40.7843,69.4937 46,69.5C 51.0119,69.4993 55.8453,69.1659 60.5,68.5C 60.8333,68.5 61.1667,68.5 61.5,68.5C 61.7352,69.0967 62.2352,69.4301 63,69.5C 64.3026,69.0217 65.4693,68.355 66.5,67.5C 67.5521,69.256 69.2188,69.9227 71.5,69.5C 71.7373,70.791 71.404,71.791 70.5,72.5C 57.5419,70.5186 44.2086,69.8519 30.5,70.5C 30.2627,69.209 30.596,68.209 31.5,67.5 Z"/></g>
<g><path style="opacity:1" fill="#7d9dda" d="M 106.5,69.5 C 107.209,68.596 108.209,68.2627 109.5,68.5C 109.784,70.4147 109.451,72.0813 108.5,73.5C 108.843,71.5168 108.176,70.1834 106.5,69.5 Z"/></g>
<g><path style="opacity:1" fill="#dfe7f6" d="M 106.5,69.5 C 108.176,70.1834 108.843,71.5168 108.5,73.5C 107.358,77.0712 106.691,80.7379 106.5,84.5C 105.5,84.5 104.5,84.5 103.5,84.5C 102.742,81.6481 102.742,78.9815 103.5,76.5C 103.56,77.0431 103.893,77.3764 104.5,77.5C 105.386,76.675 105.719,75.675 105.5,74.5C 105.216,72.5853 105.549,70.9187 106.5,69.5 Z"/></g>
<g><path style="opacity:1" fill="#1e5ac1" d="M 30.5,70.5 C 44.2086,69.8519 57.5419,70.5186 70.5,72.5C 69.9853,74.8945 69.3186,77.2278 68.5,79.5C 54.7914,80.1481 41.4581,79.4814 28.5,77.5C 29.0147,75.1055 29.6814,72.7722 30.5,70.5 Z"/></g>
<g><path style="opacity:1" fill="#5983d0" d="M 103.5,74.5 C 104.167,74.5 104.833,74.5 105.5,74.5C 105.719,75.675 105.386,76.675 104.5,77.5C 103.893,77.3764 103.56,77.0431 103.5,76.5C 103.5,75.8333 103.5,75.1667 103.5,74.5 Z"/></g>
<g><path style="opacity:1" fill="#bbcbec" d="M 126.5,72.5 C 128.335,73.1223 129.502,74.4556 130,76.5C 132.333,73.8333 134.667,73.8333 137,76.5C 137.175,79.1572 137.008,81.8239 136.5,84.5C 131.292,85.127 128.792,82.7937 129,77.5C 128.503,79.8098 128.337,82.1432 128.5,84.5C 127.5,84.5 126.5,84.5 125.5,84.5C 125.808,82.076 125.474,79.7427 124.5,77.5C 124.245,79.3435 124.078,81.3435 124,83.5C 122,84.8333 120,84.8333 118,83.5C 117.312,82.6683 117.479,82.0016 118.5,81.5C 119.609,82.5896 120.609,82.5896 121.5,81.5C 119.693,80.6049 118.36,79.2716 117.5,77.5C 118.519,74.4034 120.519,73.7368 123.5,75.5C 124.855,74.8118 125.855,73.8118 126.5,72.5 Z"/></g>
<g><path style="opacity:1" fill="#4e5dc2" d="M 132.5,76.5 C 134.337,76.6395 134.67,77.3061 133.5,78.5C 132.702,78.0431 132.369,77.3764 132.5,76.5 Z"/></g>
<g><path style="opacity:1" fill="#c5d3ef" d="M 144.5,74.5 C 146.792,74.2436 148.959,74.5769 151,75.5C 151.821,78.5541 151.655,81.5541 150.5,84.5C 148.873,75.256 147.873,75.256 147.5,84.5C 146.5,84.5 145.5,84.5 144.5,84.5C 144.5,81.1667 144.5,77.8333 144.5,74.5 Z"/></g>
<g><path style="opacity:1" fill="#94aee1" d="M 142.5,77.5 C 142.179,75.9519 141.179,75.2852 139.5,75.5C 139.336,78.1873 139.503,80.854 140,83.5C 140.191,81.2922 140.691,79.2922 141.5,77.5C 141.5,80.1667 141.5,82.8333 141.5,85.5C 140.5,85.5 139.5,85.5 138.5,85.5C 138.5,81.8333 138.5,78.1667 138.5,74.5C 140.167,74.5 141.833,74.5 143.5,74.5C 143.737,75.791 143.404,76.791 142.5,77.5 Z"/></g>
<g><path style="opacity:1" fill="#e9eff9" d="M 142.5,77.5 C 142.167,77.5 141.833,77.5 141.5,77.5C 140.691,79.2922 140.191,81.2922 140,83.5C 139.503,80.854 139.336,78.1873 139.5,75.5C 141.179,75.2852 142.179,75.9519 142.5,77.5 Z"/></g>
<g><path style="opacity:1" fill="#e4ebf7" d="M 102.5,69.5 C 102.741,71.8863 102.075,73.8863 100.5,75.5C 99.701,78.4299 99.3677,81.4299 99.5,84.5C 98.1779,84.67 97.0113,84.3366 96,83.5C 94.9878,79.1174 93.8212,74.7841 92.5,70.5C 93.6888,69.5713 95.0222,69.238 96.5,69.5C 96.7965,79.209 97.6299,79.5423 99,70.5C 100.011,69.6634 101.178,69.33 102.5,69.5 Z"/></g>
<g><path style="opacity:1" fill="#b1c7ea" d="M 28.5,77.5 C 41.4581,79.4814 54.7914,80.1481 68.5,79.5C 68.7678,81.099 68.4345,82.4324 67.5,83.5C 54.5419,81.5186 41.2086,80.8519 27.5,81.5C 27.2322,79.901 27.5655,78.5676 28.5,77.5 Z"/></g>
<g><path style="opacity:1" fill="#a4bae6" d="M 102.5,69.5 C 103.451,70.9187 103.784,72.5853 103.5,74.5C 103.5,75.1667 103.5,75.8333 103.5,76.5C 102.742,78.9815 102.742,81.6481 103.5,84.5C 102.184,81.5917 101.184,78.5917 100.5,75.5C 102.075,73.8863 102.741,71.8863 102.5,69.5 Z"/></g>
<g><path style="opacity:1" fill="#cfdcf2" d="M 110.5,74.5 C 114.29,73.9532 116.29,75.6199 116.5,79.5C 114.833,80.1667 113.167,80.8333 111.5,81.5C 112.651,82.731 113.817,82.731 115,81.5C 115.483,82.448 115.649,83.448 115.5,84.5C 113.533,84.7394 111.699,84.4061 110,83.5C 109.264,80.408 109.431,77.408 110.5,74.5 Z"/></g>
<g><path style="opacity:1" fill="#4d5cc0" d="M 111.5,76.5 C 113.337,76.6395 113.67,77.3061 112.5,78.5C 111.702,78.0431 111.369,77.3764 111.5,76.5 Z"/></g>
<g><path style="opacity:1" fill="#475fc3" d="M 132.5,80.5 C 134.337,80.6395 134.67,81.3061 133.5,82.5C 132.702,82.0431 132.369,81.3764 132.5,80.5 Z"/></g>
<g><path style="opacity:1" fill="#2461c4" d="M 27.5,81.5 C 41.2086,80.8519 54.5419,81.5186 67.5,83.5C 66.5655,84.5676 66.2322,85.901 66.5,87.5C 65.596,88.209 65.2627,89.209 65.5,90.5C 52.5,90.5 39.5,90.5 26.5,90.5C 26.8333,87.8333 27.1667,85.1667 27.5,82.5C 27.5,82.1667 27.5,81.8333 27.5,81.5 Z"/></g>
<g><path style="opacity:1" fill="#abc2e8" d="M 100.5,88.5 C 98.5,88.5 96.5,88.5 94.5,88.5C 93.8969,93.6186 94.5636,98.2853 96.5,102.5C 96.5,102.833 96.5,103.167 96.5,103.5C 95.5,103.5 94.5,103.5 93.5,103.5C 93.5,98.1667 93.5,92.8333 93.5,87.5C 96.0593,87.1984 98.3926,87.5318 100.5,88.5 Z"/></g>
<g><path style="opacity:1" fill="#a2bee8" d="M 66.5,87.5 C 66.8432,89.4832 66.1765,90.8166 64.5,91.5C 51.6557,91.8287 38.989,91.4954 26.5,90.5C 39.5,90.5 52.5,90.5 65.5,90.5C 65.2627,89.209 65.596,88.209 66.5,87.5 Z"/></g>
<g><path style="opacity:1" fill="#aabfe8" d="M 78.5,88.5 C 78.3691,89.3764 78.7025,90.0431 79.5,90.5C 81.0709,89.6906 82.7376,89.3573 84.5,89.5C 82.4855,90.9238 80.1522,91.5905 77.5,91.5C 77.2627,90.209 77.596,89.209 78.5,88.5 Z"/></g>
<g><path style="opacity:1" fill="#e7edf8" d="M 100.5,88.5 C 104.12,90.8445 104.454,93.6779 101.5,97C 102.233,98.7659 102.567,100.599 102.5,102.5C 101.5,102.5 100.5,102.5 99.5,102.5C 99.5674,101.041 99.2341,99.7079 98.5,98.5C 97.1736,96.8049 97.5069,95.4716 99.5,94.5C 99.5,93.5 99.5,92.5 99.5,91.5C 98.791,90.596 97.791,90.2627 96.5,90.5C 96.5,94.5 96.5,98.5 96.5,102.5C 94.5636,98.2853 93.8969,93.6186 94.5,88.5C 96.5,88.5 98.5,88.5 100.5,88.5 Z"/></g>
<g><path style="opacity:1" fill="#d2dff4" d="M 27.5,82.5 C 27.1667,85.1667 26.8333,87.8333 26.5,90.5C 38.989,91.4954 51.6557,91.8287 64.5,91.5C 64.5,91.8333 64.5,92.1667 64.5,92.5C 51.8333,92.5 39.1667,92.5 26.5,92.5C 26.5,95.1667 26.5,97.8333 26.5,100.5C 26.5,100.833 26.5,101.167 26.5,101.5C 25.8359,99.0221 25.5025,96.3555 25.5,93.5C 25.2942,89.5313 25.9608,85.8646 27.5,82.5 Z"/></g>
<g><path style="opacity:1" fill="#1e3db6" d="M 99.5,91.5 C 99.5,92.5 99.5,93.5 99.5,94.5C 96.8333,93.5 96.8333,92.5 99.5,91.5 Z"/></g>
<g><path style="opacity:1" fill="#4f7cce" d="M 129.5,93.5 C 132.167,92.1667 134.833,92.1667 137.5,93.5C 136.167,93.5 135.5,94.1667 135.5,95.5C 134.833,95.5 134.167,95.5 133.5,95.5C 132.817,93.8235 131.483,93.1568 129.5,93.5 Z"/></g>
<g><path style="opacity:1" fill="#9eafe1" d="M 144.5,93.5 C 146.79,92.1332 148.456,92.7998 149.5,95.5C 148.518,96.1408 147.518,96.8075 146.5,97.5C 145.261,95.9928 145.595,94.8261 147.5,94C 146.552,93.5172 145.552,93.3505 144.5,93.5 Z"/></g>
<g><path style="opacity:1" fill="#7391d6" d="M 99.5,91.5 C 96.8333,92.5 96.8333,93.5 99.5,94.5C 97.5069,95.4716 97.1736,96.8049 98.5,98.5C 97.8333,100.167 97.1667,101.833 96.5,103.5C 96.5,103.167 96.5,102.833 96.5,102.5C 96.5,98.5 96.5,94.5 96.5,90.5C 97.791,90.2627 98.791,90.596 99.5,91.5 Z"/></g>
<g><path style="opacity:1" fill="#5f86d2" d="M 118.5,94.5 C 119.625,95.3478 119.625,96.3478 118.5,97.5C 117.325,97.719 116.325,97.3857 115.5,96.5C 116.602,95.8243 117.602,95.1577 118.5,94.5 Z"/></g>
<g><path style="opacity:1" fill="#dee7f6" d="M 129.5,93.5 C 131.483,93.1568 132.817,93.8235 133.5,95.5C 131.656,97.2789 130.99,99.6122 131.5,102.5C 129.612,100.012 128.945,97.0122 129.5,93.5 Z"/></g>
<g><path style="opacity:1" fill="#5f82d1" d="M 129.5,93.5 C 128.945,97.0122 129.612,100.012 131.5,102.5C 130.791,103.404 129.791,103.737 128.5,103.5C 128.784,101.585 128.451,99.9187 127.5,98.5C 127.5,97.5 127.5,96.5 127.5,95.5C 128.167,94.8333 128.833,94.1667 129.5,93.5 Z"/></g>
<g><path style="opacity:1" fill="#306cc8" d="M 64.5,92.5 C 64.5,93.1667 64.5,93.8333 64.5,94.5C 63.2616,96.2143 62.595,98.2143 62.5,100.5C 50.5,100.5 38.5,100.5 26.5,100.5C 26.5,97.8333 26.5,95.1667 26.5,92.5C 39.1667,92.5 51.8333,92.5 64.5,92.5 Z"/></g>
<g><path style="opacity:1" fill="#cad6f0" d="M 110.5,94.5 C 110.5,95.8333 110.5,97.1667 110.5,98.5C 107.12,98.1794 106.287,99.1794 108,101.5C 108.977,100.226 109.811,100.226 110.5,101.5C 109.249,103.561 107.582,103.894 105.5,102.5C 103.922,99.0626 104.255,95.8959 106.5,93C 108.352,92.2274 109.686,92.7274 110.5,94.5 Z"/></g>
<g><path style="opacity:1" fill="#7594d7" d="M 110.5,94.5 C 111.833,96.8333 111.833,99.1667 110.5,101.5C 109.811,100.226 108.977,100.226 108,101.5C 106.287,99.1794 107.12,98.1794 110.5,98.5C 110.5,97.1667 110.5,95.8333 110.5,94.5 Z"/></g>
<g><path style="opacity:1" fill="#7695d7" d="M 127.5,98.5 C 127.5,99.1667 127.5,99.8333 127.5,100.5C 125.381,102.087 123.714,101.754 122.5,99.5C 124.045,98.5481 125.712,98.2148 127.5,98.5 Z"/></g>
<g><path style="opacity:1" fill="#cddaf1" d="M 137.5,93.5 C 138.004,97.3354 139.004,97.3354 140.5,93.5C 140.833,94 141.167,94.5 141.5,95C 140.016,105.919 138.016,106.086 135.5,95.5C 135.5,94.1667 136.167,93.5 137.5,93.5 Z"/></g>
<g><path style="opacity:1" fill="#678ad4" d="M 149.5,95.5 C 150.833,97.5 150.833,99.5 149.5,101.5C 148.687,100.347 147.687,100.347 146.5,101.5C 145.614,100.675 145.281,99.675 145.5,98.5C 146.833,98.5 148.167,98.5 149.5,98.5C 149.5,97.5 149.5,96.5 149.5,95.5 Z"/></g>
<g><path style="opacity:1" fill="#759ddb" d="M 64.5,94.5 C 64.3259,96.861 63.9926,99.1944 63.5,101.5C 51.1667,101.5 38.8333,101.5 26.5,101.5C 26.5,101.167 26.5,100.833 26.5,100.5C 38.5,100.5 50.5,100.5 62.5,100.5C 62.595,98.2143 63.2616,96.2143 64.5,94.5 Z"/></g>
<g><path style="opacity:1" fill="#beccec" d="M 118.5,94.5 C 117.602,95.1577 116.602,95.8243 115.5,96.5C 116.325,97.3857 117.325,97.719 118.5,97.5C 120.067,101.434 118.734,103.267 114.5,103C 112.043,101.488 112.043,100.154 114.5,99C 111.591,96.1606 111.925,93.9939 115.5,92.5C 117.038,92.4534 118.038,93.1201 118.5,94.5 Z"/></g>
<g><path style="opacity:1" fill="#d2ddf2" d="M 127.5,95.5 C 127.5,96.5 127.5,97.5 127.5,98.5C 125.712,98.2148 124.045,98.5481 122.5,99.5C 123.714,101.754 125.381,102.087 127.5,100.5C 123.363,104.891 121.03,103.891 120.5,97.5C 121.617,91.902 123.951,91.2353 127.5,95.5 Z"/></g>
<g><path style="opacity:1" fill="#ccdaf1" d="M 144.5,93.5 C 145.552,93.3505 146.552,93.5172 147.5,94C 145.595,94.8261 145.261,95.9928 146.5,97.5C 147.518,96.8075 148.518,96.1408 149.5,95.5C 149.5,96.5 149.5,97.5 149.5,98.5C 148.167,98.5 146.833,98.5 145.5,98.5C 145.281,99.675 145.614,100.675 146.5,101.5C 147.687,100.347 148.687,100.347 149.5,101.5C 145.393,104.696 143.06,103.529 142.5,98C 142.519,96.167 143.185,94.667 144.5,93.5 Z"/></g>
<g><path style="opacity:1" fill="#85aade" d="M 60.5,106.5 C 55.3762,105.171 49.8762,104.505 44,104.5C 38.1238,104.505 32.6238,105.171 27.5,106.5C 26.596,105.791 26.2627,104.791 26.5,103.5C 38.1667,103.5 49.8333,103.5 61.5,103.5C 61.7373,104.791 61.404,105.791 60.5,106.5 Z"/></g>
<g><path style="opacity:1" fill="#2e6dc8" d="M 60.5,106.5 C 60.5,107.167 60.5,107.833 60.5,108.5C 59.596,109.209 59.2627,110.209 59.5,111.5C 49.1667,111.5 38.8333,111.5 28.5,111.5C 27.5489,110.081 27.2155,108.415 27.5,106.5C 32.6238,105.171 38.1238,104.505 44,104.5C 49.8762,104.505 55.3762,105.171 60.5,106.5 Z"/></g>
<g><path style="opacity:1" fill="#3a73cb" d="M 72.5,111.5 C 68.6286,111.815 64.9619,111.482 61.5,110.5C 64.872,108.394 68.372,106.394 72,104.5C 72.5,104.833 73,105.167 73.5,105.5C 72.6518,107.409 72.3184,109.409 72.5,111.5 Z"/></g>
<g><path style="opacity:1" fill="#a3bee7" d="M 60.5,108.5 C 60.3284,109.492 60.6618,110.158 61.5,110.5C 64.9619,111.482 68.6286,111.815 72.5,111.5C 57.8333,112.833 43.1667,112.833 28.5,111.5C 38.8333,111.5 49.1667,111.5 59.5,111.5C 59.2627,110.209 59.596,109.209 60.5,108.5 Z"/></g>
<g><path style="opacity:1" fill="#d0ddf2" d="M 124.5,111.5 C 126.402,114.337 127.069,117.671 126.5,121.5C 124.265,121.795 122.265,121.461 120.5,120.5C 120.336,117.813 120.503,115.146 121,112.5C 121.497,114.81 121.663,117.143 121.5,119.5C 122.5,119.5 123.5,119.5 124.5,119.5C 124.5,116.833 124.5,114.167 124.5,111.5 Z"/></g>
<g><path style="opacity:1" fill="#5f87d2" d="M 110.5,112.5 C 111.167,112.5 111.833,112.5 112.5,112.5C 111.659,114.379 111.325,116.379 111.5,118.5C 110.833,117.167 110.167,115.833 109.5,114.5C 109.833,113.833 110.167,113.167 110.5,112.5 Z"/></g>
<g><path style="opacity:1" fill="#a1bde7" d="M 29.5,115.5 C 43.3234,114.504 57.3234,114.171 71.5,114.5C 71.552,116.903 71.2186,119.236 70.5,121.5C 70.1667,121.5 69.8333,121.5 69.5,121.5C 69.8333,119.5 70.1667,117.5 70.5,115.5C 56.8333,115.5 43.1667,115.5 29.5,115.5 Z"/></g>
<g><path style="opacity:1" fill="#7c9ad9" d="M 98.5,113.5 C 100.265,112.539 102.265,112.205 104.5,112.5C 104.795,114.735 104.461,116.735 103.5,118.5C 103.5,116.833 103.5,115.167 103.5,113.5C 101.833,113.5 100.167,113.5 98.5,113.5 Z"/></g>
<g><path style="opacity:1" fill="#809fdb" d="M 110.5,112.5 C 109.167,112.5 107.833,112.5 106.5,112.5C 106.5,115.5 106.5,118.5 106.5,121.5C 105.521,118.375 105.187,115.042 105.5,111.5C 107.415,111.216 109.081,111.549 110.5,112.5 Z"/></g>
<g><path style="opacity:1" fill="#83a0dc" d="M 124.5,111.5 C 124.5,114.167 124.5,116.833 124.5,119.5C 123.5,119.5 122.5,119.5 121.5,119.5C 121.663,117.143 121.497,114.81 121,112.5C 120.503,115.146 120.336,117.813 120.5,120.5C 119.523,117.713 119.19,114.713 119.5,111.5C 120.5,111.5 121.5,111.5 122.5,111.5C 122.337,113.857 122.503,116.19 123,118.5C 123.186,115.964 123.686,113.631 124.5,111.5 Z"/></g>
<g><path style="opacity:1" fill="#dae4f5" d="M 128.5,111.5 C 134.499,111.002 136.666,113.669 135,119.5C 133.89,121.037 132.39,121.703 130.5,121.5C 130.719,122.675 130.386,123.675 129.5,124.5C 128.508,120.217 128.174,115.884 128.5,111.5 Z"/></g>
<g><path style="opacity:1" fill="#2b49bb" d="M 130.5,114.5 C 131.649,114.791 132.316,115.624 132.5,117C 132.167,117.833 131.833,118.667 131.5,119.5C 130.548,117.955 130.215,116.288 130.5,114.5 Z"/></g>
<g><path style="opacity:1" fill="#417acd" d="M 29.5,115.5 C 43.1667,115.5 56.8333,115.5 70.5,115.5C 70.1667,117.5 69.8333,119.5 69.5,121.5C 57.011,122.495 44.3443,122.829 31.5,122.5C 31.1218,120.079 30.4552,117.746 29.5,115.5 Z"/></g>
<g><path style="opacity:1" fill="#cad9f1" d="M 110.5,112.5 C 110.167,113.167 109.833,113.833 109.5,114.5C 109.083,117.159 108.083,119.492 106.5,121.5C 106.5,118.5 106.5,115.5 106.5,112.5C 107.833,112.5 109.167,112.5 110.5,112.5 Z"/></g>
<g><path style="opacity:1" fill="#d8e2f4" d="M 100.5,110.5 C 99.9473,108.448 98.9473,108.115 97.5,109.5C 96.3659,111.966 96.1993,114.633 97,117.5C 98.1827,118.731 99.3493,118.731 100.5,117.5C 99.1468,116.476 98.4802,115.143 98.5,113.5C 100.167,113.5 101.833,113.5 103.5,113.5C 103.5,115.167 103.5,116.833 103.5,118.5C 101.593,121.332 98.9268,122.166 95.5,121C 93.5223,117.067 93.0223,112.9 94,108.5C 98.4452,104.089 101.945,104.756 104.5,110.5C 103.042,111.782 101.708,111.782 100.5,110.5 Z"/></g>
<g><path style="opacity:1" fill="#6d86d1" d="M 97.5,109.5 C 98.9473,108.115 99.9473,108.448 100.5,110.5C 99.609,109.89 98.609,109.557 97.5,109.5 Z"/></g>
<g><path style="opacity:1" fill="#cfdbf2" d="M 111.5,118.5 C 111.325,116.379 111.659,114.379 112.5,112.5C 116.195,110.823 118.195,112.156 118.5,116.5C 118.337,120.5 116.337,122 112.5,121C 111.748,120.329 111.414,119.496 111.5,118.5 Z"/></g>
<g><path style="opacity:1" fill="#4861c4" d="M 113.5,113.5 C 114.693,113.97 115.36,114.97 115.5,116.5C 115.167,117.5 114.833,118.5 114.5,119.5C 113.534,117.604 113.201,115.604 113.5,113.5 Z"/></g>
<g><path style="opacity:1" fill="#ceddf2" d="M 69.5,121.5 C 69.8333,121.5 70.1667,121.5 70.5,121.5C 64.3693,122.83 57.8693,123.497 51,123.5C 44.3245,123.5 37.8245,123.166 31.5,122.5C 44.3443,122.829 57.011,122.495 69.5,121.5 Z"/></g>
<g><path style="opacity:1" fill="#b9ceec" d="M 68.5,128.5 C 63.2082,127.171 57.5415,126.504 51.5,126.5C 45.4585,126.504 39.7918,127.171 34.5,128.5C 33.596,127.791 33.2627,126.791 33.5,125.5C 45.5,125.5 57.5,125.5 69.5,125.5C 69.7373,126.791 69.404,127.791 68.5,128.5 Z"/></g>
<g><path style="opacity:1" fill="#4980cf" d="M 68.5,128.5 C 68.5,128.833 68.5,129.167 68.5,129.5C 67.596,130.209 67.2627,131.209 67.5,132.5C 57.5,132.5 47.5,132.5 37.5,132.5C 36.9744,130.77 35.9744,129.436 34.5,128.5C 39.7918,127.171 45.4585,126.504 51.5,126.5C 57.5415,126.504 63.2082,127.171 68.5,128.5 Z"/></g>
<g><path style="opacity:1" fill="#9bbae4" d="M 68.5,129.5 C 68.5,130.833 68.5,132.167 68.5,133.5C 57.9865,133.828 47.6532,133.494 37.5,132.5C 47.5,132.5 57.5,132.5 67.5,132.5C 67.2627,131.209 67.596,130.209 68.5,129.5 Z"/></g>
<g><path style="opacity:1" fill="#5689d2" d="M 42.5,137.5 C 50.5277,137.169 58.5277,137.502 66.5,138.5C 65.6906,140.071 65.3573,141.738 65.5,143.5C 59.1579,143.666 52.8246,143.5 46.5,143C 44.5359,141.549 43.2026,139.716 42.5,137.5 Z"/></g>
<g><path style="opacity:1" fill="#5f8fd5" d="M 60.5,154.5 C 58.6508,153.407 56.9842,152.074 55.5,150.5C 57.9664,149.366 60.633,149.199 63.5,150C 63.0853,152.026 62.0853,153.526 60.5,154.5 Z"/></g>
<g><path style="opacity:1" fill="#97b3e3" d="M 65.5,149.5 C 63.91,152.455 64.2433,155.122 66.5,157.5C 64.4561,156.492 62.4561,155.492 60.5,154.5C 62.0853,153.526 63.0853,152.026 63.5,150C 60.633,149.199 57.9664,149.366 55.5,150.5C 54.7109,150.217 54.0442,149.717 53.5,149C 57.5874,148.238 61.5874,148.404 65.5,149.5 Z"/></g>
<g><path style="opacity:1" fill="#8ca9df" d="M 70.5,158.5 C 72.403,158.796 74.0697,159.463 75.5,160.5C 73.302,160.88 71.6354,160.213 70.5,158.5 Z"/></g>
<g><path style="opacity:1" fill="#bfd0ed" d="M 123.5,156.5 C 117,161.064 109.667,163.397 101.5,163.5C 101.5,163.167 101.5,162.833 101.5,162.5C 108.974,161.121 116.307,159.121 123.5,156.5 Z"/></g>
<g><path style="opacity:1" fill="#749ad9" d="M 81.5,161.5 C 88.1311,162.331 94.7978,162.664 101.5,162.5C 101.5,162.833 101.5,163.167 101.5,163.5C 95.8236,163.666 90.1569,163.499 84.5,163C 83.2625,162.768 82.2625,162.268 81.5,161.5 Z"/></g>
</svg>
