<?xml version="1.0" encoding="UTF-8"?>
<!DOCTYPE svg PUBLIC "-//W3C//DTD SVG 1.1//EN" "http://www.w3.org/Graphics/SVG/1.1/DTD/svg11.dtd">
<svg xmlns="http://www.w3.org/2000/svg" version="1.1" width="187px" height="187px" style="shape-rendering:geometricPrecision; text-rendering:geometricPrecision; image-rendering:optimizeQuality; fill-rule:evenodd; clip-rule:evenodd" xmlns:xlink="http://www.w3.org/1999/xlink">
<g><path style="opacity:0.997" fill="#fffefe" d="M 82.5,-0.5 C 89.5,-0.5 96.5,-0.5 103.5,-0.5C 149.71,8.04276 177.376,35.3761 186.5,81.5C 186.5,89.1667 186.5,96.8333 186.5,104.5C 177.376,150.624 149.71,177.957 103.5,186.5C 96.5,186.5 89.5,186.5 82.5,186.5C 35.8373,177.837 8.1706,150.171 -0.5,103.5C -0.5,96.5 -0.5,89.5 -0.5,82.5C 8.1706,35.8294 35.8373,8.16274 82.5,-0.5 Z"/></g>
<g><path style="opacity:1" fill="#ffecf3" d="M 29.5,87.5 C 29.5858,86.5041 29.2524,85.6708 28.5,85C 22.0511,85.4209 15.7178,84.9209 9.5,83.5C 13.7723,79.7259 18.7723,78.5593 24.5,80C 30.9081,83.3228 33.0748,88.4895 31,95.5C 30.8171,92.6353 30.3171,89.9686 29.5,87.5 Z"/></g>
<g><path style="opacity:1" fill="#fe277f" d="M 7.5,83.5 C 8.16667,83.5 8.83333,83.5 9.5,83.5C 15.7178,84.9209 22.0511,85.4209 28.5,85C 29.2524,85.6708 29.5858,86.5041 29.5,87.5C 29.1796,90.8984 29.513,94.2317 30.5,97.5C 31.4288,96.4502 32.0954,96.4502 32.5,97.5C 32.2671,99.0618 31.6005,100.395 30.5,101.5C 29.596,100.791 29.2627,99.791 29.5,98.5C 28.5,98.5 27.5,98.5 26.5,98.5C 26.665,95.1501 26.4983,91.8168 26,88.5C 24.6667,87.1667 23.3333,87.1667 22,88.5C 21.5014,92.1516 21.3347,95.8183 21.5,99.5C 20.1667,99.5 18.8333,99.5 17.5,99.5C 17.6653,95.8183 17.4986,92.1516 17,88.5C 14.499,86.9442 12.999,87.6108 12.5,90.5C 11.8343,93.0277 11.1676,95.6944 10.5,98.5C 9.93857,93.3256 8.93857,88.3256 7.5,83.5 Z"/></g>
<g><path style="opacity:1" fill="#ffeff4" d="M 26.5,98.5 C 26.9175,99.2216 27.5842,99.7216 28.5,100C 22.4588,105.989 16.4588,105.989 10.5,100C 12.3444,97.1963 13.0111,94.0297 12.5,90.5C 12.999,87.6108 14.499,86.9442 17,88.5C 17.4986,92.1516 17.6653,95.8183 17.5,99.5C 18.8333,99.5 20.1667,99.5 21.5,99.5C 21.3347,95.8183 21.5014,92.1516 22,88.5C 23.3333,87.1667 24.6667,87.1667 26,88.5C 26.4983,91.8168 26.665,95.1501 26.5,98.5 Z"/></g>
<g><path style="opacity:1" fill="#ff478f" d="M 32.5,97.5 C 32.0954,96.4502 31.4288,96.4502 30.5,97.5C 29.513,94.2317 29.1796,90.8984 29.5,87.5C 30.3171,89.9686 30.8171,92.6353 31,95.5C 33.0748,88.4895 30.9081,83.3228 24.5,80C 18.7723,78.5593 13.7723,79.7259 9.5,83.5C 8.83333,83.5 8.16667,83.5 7.5,83.5C 11.7293,77.7956 17.3959,75.9623 24.5,78C 29,79.8333 32.1667,83 34,87.5C 39.2017,77.1606 47.035,74.6606 57.5,80C 60.4668,82.1005 62.3002,84.9338 63,88.5C 67.2962,78.1085 74.7962,74.9418 85.5,79C 88.372,81.5366 90.872,84.3699 93,87.5C 98.2017,77.1606 106.035,74.6606 116.5,80C 119.106,81.9384 120.939,84.4384 122,87.5C 127.202,77.1606 135.035,74.6606 145.5,80C 148.467,82.1005 150.3,84.9338 151,88.5C 155.296,78.1085 162.796,74.9418 173.5,79C 180.884,84.8761 182.384,92.0427 178,100.5C 167.55,109.484 158.55,108.151 151,96.5C 144.942,106.631 136.775,108.797 126.5,103C 124.623,100.749 123.123,98.2487 122,95.5C 116.446,106.462 108.279,108.962 97.5,103C 96,100.833 94.5,98.6667 93,96.5C 87.3579,106.048 79.5246,108.548 69.5,104C 66.979,101.78 64.8123,99.2802 63,96.5C 56.9418,106.631 48.7751,108.797 38.5,103C 36.6227,100.749 35.1227,98.2487 34,95.5C 33.7216,96.4158 33.2216,97.0825 32.5,97.5 Z"/></g>
<g><path style="opacity:1" fill="#fff6f9" d="M 85.5,82.5 C 90.6652,86.4198 91.8319,91.4198 89,97.5C 88.6232,98.9423 87.7899,99.9423 86.5,100.5C 85.5104,94.69 85.1771,88.69 85.5,82.5 Z"/></g>
<g><path style="opacity:1" fill="#ffc8dc" d="M 84.5,81.5 C 85.1667,81.5 85.5,81.8333 85.5,82.5C 85.1771,88.69 85.5104,94.69 86.5,100.5C 85.5637,101.974 84.2303,102.974 82.5,103.5C 79.8333,102.833 77.1667,102.167 74.5,101.5C 77.8333,101.5 81.1667,101.5 84.5,101.5C 84.5,94.8333 84.5,88.1667 84.5,81.5 Z"/></g>
<g><path style="opacity:1" fill="#ff3a87" d="M 84.5,81.5 C 84.5,88.1667 84.5,94.8333 84.5,101.5C 81.1667,101.5 77.8333,101.5 74.5,101.5C 72.2475,101.084 70.7475,99.751 70,97.5C 68.6215,93.1019 69.7882,89.6019 73.5,87C 75.5675,86.3131 77.5675,86.4798 79.5,87.5C 80.4656,85.604 80.7989,83.604 80.5,81.5C 81.8333,81.5 83.1667,81.5 84.5,81.5 Z"/></g>
<g><path style="opacity:1" fill="#fff1f6" d="M 161.5,79.5 C 169.051,78.0259 174.551,80.6926 178,87.5C 178.555,101.953 172.055,106.786 158.5,102C 151.11,93.2821 152.11,85.7821 161.5,79.5 Z"/></g>
<g><path style="opacity:1" fill="#ff3785" d="M 161.5,84.5 C 173.39,83.5188 176.39,88.0188 170.5,98C 161.39,100.563 157.556,97.0628 159,87.5C 160.045,86.6266 160.878,85.6266 161.5,84.5 Z"/></g>
<g><path style="opacity:1" fill="#fff5f8" d="M 131.5,79.5 C 144.374,78.2056 149.874,83.8722 148,96.5C 140.288,107.155 132.621,107.155 125,96.5C 122.788,89.0146 124.954,83.3479 131.5,79.5 Z"/></g>
<g><path style="opacity:1" fill="#fe3284" d="M 132.5,84.5 C 135.5,84.5 138.5,84.5 141.5,84.5C 141.5,85.5 141.5,86.5 141.5,87.5C 139.61,87.2965 138.11,87.9632 137,89.5C 136.502,92.8168 136.335,96.1501 136.5,99.5C 135.167,99.5 133.833,99.5 132.5,99.5C 132.5,94.5 132.5,89.5 132.5,84.5 Z"/></g>
<g><path style="opacity:1" fill="#fff3f7" d="M 102.5,79.5 C 115.374,78.2056 120.874,83.8722 119,96.5C 111.288,107.155 103.621,107.155 96,96.5C 93.7876,89.0146 95.9543,83.3479 102.5,79.5 Z"/></g>
<g><path style="opacity:1" fill="#fe2c81" d="M 114.5,88.5 C 114.5,89.8333 114.5,91.1667 114.5,92.5C 111.167,92.5 107.833,92.5 104.5,92.5C 104.263,93.791 104.596,94.791 105.5,95.5C 107.292,95.634 108.958,95.3007 110.5,94.5C 112.179,94.2852 113.179,94.9519 113.5,96.5C 110.05,100.041 106.217,100.375 102,97.5C 98.0776,87.7664 101.244,83.5997 111.5,85C 112.71,86.0391 113.71,87.2058 114.5,88.5 Z"/></g>
<g><path style="opacity:1" fill="#ffeaf1" d="M 105.5,87.5 C 107.429,87.2308 109.095,87.7308 110.5,89C 108.5,89.6667 106.5,89.6667 104.5,89C 105.056,88.6174 105.389,88.1174 105.5,87.5 Z"/></g>
<g><path style="opacity:1" fill="#fff1f6" d="M 84.5,81.5 C 83.1667,81.5 81.8333,81.5 80.5,81.5C 80.7989,83.604 80.4656,85.604 79.5,87.5C 77.5675,86.4798 75.5675,86.3131 73.5,87C 69.7882,89.6019 68.6215,93.1019 70,97.5C 70.7475,99.751 72.2475,101.084 74.5,101.5C 77.1667,102.167 79.8333,102.833 82.5,103.5C 68.9816,104.81 63.8149,98.8103 67,85.5C 71.8527,79.2865 77.686,77.9531 84.5,81.5 Z"/></g>
<g><path style="opacity:1" fill="#fff0f5" d="M 43.5,79.5 C 56.3742,78.2056 61.8742,83.8722 60,96.5C 52.2878,107.155 44.6212,107.155 37,96.5C 34.7876,89.0146 36.9543,83.3479 43.5,79.5 Z"/></g>
<g><path style="opacity:1" fill="#ff3283" d="M 44.5,84.5 C 55.2497,83.7567 58.2497,88.2567 53.5,98C 43.7377,101.243 39.9044,97.7426 42,87.5C 43.045,86.6266 43.8783,85.6266 44.5,84.5 Z"/></g>
<g><path style="opacity:1" fill="#fff6f9" d="M 46.5,87.5 C 48.1439,87.2865 49.6439,87.6198 51,88.5C 51.7581,90.7695 51.5914,92.9361 50.5,95C 48.8876,95.7203 47.3876,95.5536 46,94.5C 45.2967,92.0709 45.4634,89.7375 46.5,87.5 Z"/></g>
<g><path style="opacity:1" fill="#ffeff4" d="M 164.5,87.5 C 169.262,88.0925 170.596,90.5925 168.5,95C 162.202,95.4954 160.868,92.9954 164.5,87.5 Z"/></g>
<g><path style="opacity:1" fill="#fff2f6" d="M 74.5,90.5 C 80.3133,90.062 81.98,92.562 79.5,98C 77.8876,98.7203 76.3876,98.5536 75,97.5C 74.5034,95.1902 74.3367,92.8568 74.5,90.5 Z"/></g>
<g><path style="opacity:1" fill="#ffa3c5" d="M 114.5,88.5 C 115.152,89.4486 115.486,90.6153 115.5,92C 115.693,94.0081 115.026,95.5081 113.5,96.5C 113.179,94.9519 112.179,94.2852 110.5,94.5C 109.903,93.8614 109.07,93.528 108,93.5C 106.624,93.6842 105.791,94.3509 105.5,95.5C 104.596,94.791 104.263,93.791 104.5,92.5C 107.833,92.5 111.167,92.5 114.5,92.5C 114.5,91.1667 114.5,89.8333 114.5,88.5 Z"/></g>
<g><path style="opacity:1" fill="#fff8fb" d="M 110.5,94.5 C 108.958,95.3007 107.292,95.634 105.5,95.5C 105.791,94.3509 106.624,93.6842 108,93.5C 109.07,93.528 109.903,93.8614 110.5,94.5 Z"/></g>
<g><path style="opacity:1" fill="#ff619c" d="M 7.5,83.5 C 8.93857,88.3256 9.93857,93.3256 10.5,98.5C 11.1676,95.6944 11.8343,93.0277 12.5,90.5C 13.0111,94.0297 12.3444,97.1963 10.5,100C 16.4588,105.989 22.4588,105.989 28.5,100C 27.5842,99.7216 26.9175,99.2216 26.5,98.5C 27.5,98.5 28.5,98.5 29.5,98.5C 29.2627,99.791 29.596,100.791 30.5,101.5C 19.7304,109.599 11.2304,107.599 5,95.5C 3.88993,90.9778 4.72327,86.9778 7.5,83.5 Z"/></g>
</svg>
